<?xml version="1.0" standalone="no"?>
<svg xmlns:xlink="http://www.w3.org/1999/xlink" id="wave" style="transform:rotate(0deg); transition: 0.3s" viewBox="0 0 1440 490" version="1.1" xmlns="http://www.w3.org/2000/svg"><defs><linearGradient id="sw-gradient-0" x1="0" x2="0" y1="1" y2="0"><stop stop-color="rgba(188, 236, 229, 1)" offset="0%"/><stop stop-color="rgba(130.645, 223.445, 209.912, 1)" offset="100%"/></linearGradient></defs><path style="transform:translate(0, 0px); opacity:1" fill="url(#sw-gradient-0)" d="M0,294L120,253.2C240,212,480,131,720,147C960,163,1200,278,1440,269.5C1680,261,1920,131,2160,106.2C2400,82,2640,163,2880,171.5C3120,180,3360,114,3600,147C3840,180,4080,310,4320,359.3C4560,408,4800,376,5040,318.5C5280,261,5520,180,5760,163.3C6000,147,6240,196,6480,245C6720,294,6960,343,7200,359.3C7440,376,7680,359,7920,367.5C8160,376,8400,408,8640,424.7C8880,441,9120,441,9360,375.7C9600,310,9840,180,10080,138.8C10320,98,10560,147,10800,187.8C11040,229,11280,261,11520,285.8C11760,310,12000,327,12240,318.5C12480,310,12720,278,12960,285.8C13200,294,13440,343,13680,310.3C13920,278,14160,163,14400,155.2C14640,147,14880,245,15120,285.8C15360,327,15600,310,15840,269.5C16080,229,16320,163,16560,147C16800,131,17040,163,17160,179.7L17280,196L17280,490L17160,490C17040,490,16800,490,16560,490C16320,490,16080,490,15840,490C15600,490,15360,490,15120,490C14880,490,14640,490,14400,490C14160,490,13920,490,13680,490C13440,490,13200,490,12960,490C12720,490,12480,490,12240,490C12000,490,11760,490,11520,490C11280,490,11040,490,10800,490C10560,490,10320,490,10080,490C9840,490,9600,490,9360,490C9120,490,8880,490,8640,490C8400,490,8160,490,7920,490C7680,490,7440,490,7200,490C6960,490,6720,490,6480,490C6240,490,6000,490,5760,490C5520,490,5280,490,5040,490C4800,490,4560,490,4320,490C4080,490,3840,490,3600,490C3360,490,3120,490,2880,490C2640,490,2400,490,2160,490C1920,490,1680,490,1440,490C1200,490,960,490,720,490C480,490,240,490,120,490L0,490Z"/></svg>